<?xml version="1.0" encoding="utf-8"?>
<!-- Generator: Adobe Illustrator 16.0.0, SVG Export Plug-In . SVG Version: 6.00 Build 0)  -->
<!DOCTYPE svg PUBLIC "-//W3C//DTD SVG 1.1//EN" "http://www.w3.org/Graphics/SVG/1.1/DTD/svg11.dtd">
<svg version="1.1" id="Layer_1" xmlns="http://www.w3.org/2000/svg" xmlns:xlink="http://www.w3.org/1999/xlink" x="0px" y="0px"
	 width="612px" height="792px" viewBox="0 0 612 792" enable-background="new 0 0 612 792" xml:space="preserve">
<g>
	<g>
		<path fill="#BB9F4B" d="M317.763,153.939c-143.307,0-259.9,120.392-259.9,268.377c0,147.968,116.594,268.346,259.9,268.346
			c143.301,0,259.889-120.378,259.889-268.346C577.651,274.331,461.063,153.939,317.763,153.939z M317.763,674.783
			c-134.556,0-244.021-113.255-244.021-252.467c0-139.229,109.464-252.498,244.021-252.498c134.545,0,244.01,113.269,244.01,252.498
			C561.772,561.528,452.308,674.783,317.763,674.783z"/>
	</g>
	<g>
		<path fill="#004E71" d="M231.222,599.956c-2.109-0.854-4.264-1.629-6.342-2.533c-0.099,0.574,0.331,1.416,1.282,2.533
			C227.935,599.956,229.64,599.956,231.222,599.956z"/>
		<path fill="#004E71" d="M332.934,115.827c-151.676,0-275.071,116.588-275.071,259.9c0,95.446,54.777,178.964,136.163,224.125
			c23.612,13.108,49.447,23.007,76.854,29.003c7.319,1.603,14.778,2.839,22.305,3.883c12.989,1.809,26.233,2.868,39.75,2.868
			c11.118,0,22.062-0.697,32.839-1.919C502.008,618.296,608,508.521,608,375.728C608,232.416,484.604,115.827,332.934,115.827z
			 M332.934,619.728c-16.076,0-31.785-1.453-47.059-4.104c-9.682-1.681-19.141-3.934-28.415-6.592
			c-8.968-2.578-17.709-5.634-26.238-9.075c-1.582,0-3.287,0-5.06,0c-0.951-1.117-1.38-1.959-1.282-2.533
			c-89.104-38.64-151.138-123.448-151.138-221.695c0-134.556,116.272-244.021,259.191-244.021
			c142.914,0,259.187,109.465,259.187,244.021C592.12,510.272,475.848,619.728,332.934,619.728z"/>
	</g>
	<g>
		<path fill="#979797" d="M268.361,113.181c-144.769,0-262.546,117.776-262.546,262.546c0,133.153,99.68,243.395,228.327,260.225
			c-16.525-8.921-34.845-24.272-43.379-31.769C95.632,571.805,26.988,481.667,26.988,375.728
			c0-133.098,108.281-241.374,241.374-241.374c133.094,0,241.369,108.276,241.369,241.374c0,126.472-97.804,230.457-221.742,240.489
			c8.431,2.089,45.297,10.215,80.52,2.12c0.046-0.01,0.082-0.021,0.128-0.031c95.152-39.471,162.267-133.319,162.267-242.578
			C530.902,230.958,413.126,113.181,268.361,113.181z"/>
	</g>
	<g>
		<path fill="#979797" d="M281.414,174.936c-145.545,0-263.952,111.919-263.952,249.489c0,137.56,118.407,249.469,263.952,249.469
			c145.544,0,263.953-111.909,263.953-249.469C545.366,286.855,426.958,174.936,281.414,174.936z M281.414,663.308
			c-139.709,0-253.366-107.16-253.366-238.883c0-131.732,113.657-238.903,253.366-238.903S534.78,292.692,534.78,424.425
			C534.78,556.147,421.123,663.308,281.414,663.308z"/>
	</g>
</g>
<g>
	<path fill="#979797" d="M273.427,546.27c0.641,39.367,25.778,55.589,54.89,55.608c20.841,0.01,33.413-3.623,44.336-8.249
		l4.952,20.842c-10.262,4.631-27.795,9.914-53.269,9.903c-49.292-0.031-78.719-32.461-78.693-80.762
		c0.026-48.299,28.492-86.334,75.138-86.307c52.27,0.025,66.143,46.021,66.127,75.462c-0.005,5.956-0.667,10.587-1.003,13.564
		L273.427,546.27z M358.794,525.47c0.337-18.525-7.588-47.307-40.339-47.327c-29.443-0.011-42.355,27.104-44.682,47.286
		L358.794,525.47z"/>
</g>
<path fill="#979797" d="M286.179,615.747"/>
</svg>
